/vscmnt/brussel_pixiu_data/_data_brussel/112/vsc11236/PredSimResults/SUBJ04mtu3D/worker8.mot
version=1
nRows=7
nColumns=50
inDegrees=yes
endheader
                time	         pelvis_tilt	         pelvis_list	     pelvis_rotation	           pelvis_tx	           pelvis_ty	           pelvis_tz	       hip_flexion_r	     hip_adduction_r	      hip_rotation_r	        knee_angle_r	       ankle_angle_r	         mtp_angle_r	       hip_flexion_l	     hip_adduction_l	      hip_rotation_l	        knee_angle_l	       ankle_angle_l	         mtp_angle_l	    lumbar_extension	      lumbar_bending	     lumbar_rotation	 ercspn_r/activation	 intobl_r/activation	 extobl_r/activation	    abd_r/activation	    add_r/activation	hamstrings_r/activation	bifemsh_r/activation	glut_max_r/activation	iliopsoas_r/activation	rect_fem_r/activation	  vasti_r/activation	gastroc_r/activation	 soleus_r/activation	tib_ant_r/activation	 ercspn_l/activation	 intobl_l/activation	 extobl_l/activation	    abd_l/activation	    add_l/activation	hamstrings_l/activation	bifemsh_l/activation	glut_max_l/activation	iliopsoas_l/activation	rect_fem_l/activation	  vasti_l/activation	gastroc_l/activation	 soleus_l/activation	tib_ant_l/activation	
          0.00000000	         -2.19886765	          0.40992107	          8.25113542	          0.00000000	          0.88070065	         -0.01122103	         29.15782860	         -3.28961764	        -10.28871528	        -11.03288717	          4.61810773	          0.23716685	        -12.62760088	         -0.58389977	         -8.50893877	         -8.57643389	         12.82382651	         21.55453534	        -13.80445519	         -3.24545395	         -6.43866643	          0.03513001	          0.22545356	          0.02213018	          0.01303372	          0.29380814	          0.06811424	          0.03962414	          0.02760128	          0.16036019	          0.02699179	          0.02481571	          0.01000231	          0.01163703	          0.32473082	          0.03447856	          0.01000012	          0.01000016	          0.04897595	          0.01000173	          0.02388575	          0.19165858	          0.01497072	          0.01389599	          0.01000122	          0.01000037	          0.27658624	          0.24173745	          0.01000007	
          0.01318031	         -2.26887574	          0.40284894	          7.99472966	          0.01589926	          0.87844037	         -0.01087287	         29.01406504	         -3.17435144	        -10.36959308	        -12.45572702	          4.37676696	          0.22476575	        -13.34465335	         -0.69808597	         -9.18359975	         -9.14452587	         12.46467532	         23.01251370	        -13.31573943	         -2.62378009	         -6.49261966	          0.02880302	          0.23074146	          0.01814440	          0.02947403	          0.24089181	          0.06437448	          0.03248841	          0.04155057	          0.13147818	          0.02213042	          0.02068500	          0.01219739	          0.01220053	          0.35559859	          0.03537087	          0.01000007	          0.01000047	          0.04015504	          0.01000139	          0.01958576	          0.15714008	          0.01227442	          0.01140050	          0.01000061	          0.01000035	          0.24676048	          0.23277405	          0.01000006	
          0.02636061	         -2.32432774	          0.33923965	          7.68553000	          0.03207296	          0.87644016	         -0.01043003	         28.81553533	         -3.02705591	        -10.47580952	        -13.75843296	          3.89859681	          0.21699832	        -13.96122089	         -0.88431580	         -9.89672429	         -9.94731537	         12.00918258	         24.50191053	        -12.80689377	         -1.91924243	         -6.51989543	          0.02661888	          0.18918337	          0.01487648	          0.04887152	          0.22708736	          0.06607284	          0.02663819	          0.03406740	          0.10779803	          0.01814462	          0.08218842	          0.01000082	          0.01000321	          0.38644237	          0.04588975	          0.01000005	          0.01000018	          0.03292284	          0.01000070	          0.01606016	          0.12883829	          0.01006376	          0.01814112	          0.01000122	          0.01000030	          0.20231725	          0.21732451	          0.01000007	
          0.03954092	         -2.36628923	          0.23334155	          7.32614600	          0.04838098	          0.87488994	         -0.00986885	         28.56228957	         -2.84377686	        -10.68105669	        -14.97216442	          3.42597634	          0.19330701	        -14.41570537	         -1.13949335	        -10.64561777	        -11.07243139	         11.41101312	         26.01968754	        -12.29941823	         -1.15434230	         -6.51899822	          0.03006550	          0.15511010	          0.01219716	          0.06990932	          0.20430224	          0.06662539	          0.02184172	          0.02793216	          0.08838284	          0.01487670	          0.14841499	          0.01000080	          0.01000039	          0.41399340	          0.05839878	          0.01000006	          0.01000018	          0.02699321	          0.01000075	          0.01317327	          0.10563375	          0.01000015	          0.01487436	          0.01000085	          0.01000030	          0.16587847	          0.19311028	          0.01000007	
          0.05272123	         -2.39573847	          0.08446932	          6.92954691	          0.06471569	          0.87395750	         -0.00918835	         28.20148495	         -2.61187373	        -10.96360611	        -16.05062909	          3.16832839	          0.16893938	        -14.64992845	         -1.48048348	        -11.42265365	        -12.59978326	         10.62566163	         27.55982577	        -11.80605849	         -0.33506427	         -6.48983571	          0.02743399	          0.12717366	          0.01000049	          0.10189103	          0.17745732	          0.06556536	          0.01790930	          0.02466520	          0.07246447	          0.01219739	          0.19614304	          0.01000088	          0.01000046	          0.41861234	          0.08012196	          0.01000009	          0.01000016	          0.02213155	          0.01000115	          0.02499141	          0.08660847	          0.01000044	          0.01219574	          0.01000061	          0.01000109	          0.13600256	          0.15832981	          0.01000006	
          0.06590154	         -2.41454784	         -0.10674918	          6.51127099	          0.08090412	          0.87380404	         -0.00839296	         27.73246311	         -2.31505440	        -11.23735957	        -16.97341142	          3.13556618	          0.14836107	        -14.59347817	         -1.92769531	        -12.21532745	        -14.61916487	          9.60825094	         29.09757703	        -11.34558618	          0.53204323	         -6.43751796	          0.02385468	          0.10426877	          0.01000034	          0.12127280	          0.16409726	          0.06603845	          0.01468531	          0.02380902	          0.05941311	          0.01000077	          0.21930382	          0.01000325	          0.01000691	          0.40973399	          0.10209842	          0.01000018	          0.01000016	          0.01814550	          0.01000562	          0.06572032	          0.07100978	          0.01157934	          0.01000093	          0.01000035	          0.01601096	          0.11150752	          0.12981348	          0.01000006	
          0.07908184	         -2.42381276	         -0.32577597	          6.08341079	          0.09683231	          0.87447684	         -0.00749468	         27.16110907	         -1.95701059	        -11.43865542	        -17.73097232	          3.28966162	          0.13820419	        -14.21720890	         -2.48231118	        -13.01057129	        -17.15245048	          8.31350775	         30.57511700	        -10.93039600	          1.42544984	         -6.36645135	          0.02241373	          0.08548922	          0.01000067	          0.12835381	          0.16838254	          0.07125505	          0.01221500	          0.01952210	          0.04871239	          0.01000029	          0.22950363	          0.01000051	          0.01000022	          0.38498078	          0.09738595	          0.01000055	          0.01000016	          0.01487738	          0.06662546	          0.07777198	          0.05822054	          0.01200573	          0.01000069	          0.01000026	          0.01312760	          0.09142421	          0.10643314	          0.01000004	
